<?xml version="1.0" encoding="utf-8"?>
<!-- Generator: Adobe Illustrator 27.3.1, SVG Export Plug-In . SVG Version: 6.00 Build 0)  -->
<svg version="1.1" id="Layer_1" xmlns="http://www.w3.org/2000/svg" xmlns:xlink="http://www.w3.org/1999/xlink" x="0px" y="0px"
	 viewBox="0 0 100 100" style="enable-background:new 0 0 100 100;" xml:space="preserve">
<style type="text/css">
	.st0{fill:url(#SVGID_1_);stroke:url(#SVGID_00000153692288101596964190000012071699430232495244_);stroke-miterlimit:10;}
	.st1{fill:#63BC5E;}
	.st2{fill:url(#SVGID_00000091704775268384173930000015032808162439681449_);}
	.st3{fill:url(#SVGID_00000161619689765139841930000006555577431053325470_);}
	.st4{stroke:#000000;stroke-miterlimit:10;}
</style>
<radialGradient id="SVGID_1_" cx="56.7964" cy="40.5853" r="42.78" gradientTransform="matrix(0.1147 0.9934 -0.9934 0.1147 83.6048 -8.069)" gradientUnits="userSpaceOnUse">
	<stop  offset="0" style="stop-color:#76A583"/>
	<stop  offset="0.2829" style="stop-color:#99C6A5"/>
	<stop  offset="0.5677" style="stop-color:#B6E1C0"/>
	<stop  offset="0.8164" style="stop-color:#C7F1D1"/>
	<stop  offset="1" style="stop-color:#CDF7D7"/>
</radialGradient>
<radialGradient id="SVGID_00000125577230511466514510000009386608445156935056_" cx="49.8" cy="53.0066" r="43.284" gradientUnits="userSpaceOnUse">
	<stop  offset="0" style="stop-color:#FFFFFF"/>
	<stop  offset="1" style="stop-color:#231F20"/>
</radialGradient>
<circle style="fill:url(#SVGID_1_);stroke:url(#SVGID_00000125577230511466514510000009386608445156935056_);stroke-miterlimit:10;" cx="49.8" cy="53" r="42.8"/>
<path class="st1" d="M50.1,94.6c14.1,0,26.4-7.4,33.4-18.5c-1.1-11.8-10.9-21-22.9-21H39.5c-12,0-21.8,9.2-22.8,20.9
	C23.6,87.2,36,94.6,50.1,94.6z"/>
<g>
	
		<linearGradient id="SVGID_00000140009541218856607100000004804317252363936134_" gradientUnits="userSpaceOnUse" x1="-75.1636" y1="-928.1169" x2="-110.7555" y2="-928.1169" gradientTransform="matrix(1 0 0 -1 0 -878)">
		<stop  offset="0" style="stop-color:#CDF7D7"/>
		<stop  offset="0.3512" style="stop-color:#CBF5D5"/>
		<stop  offset="0.5386" style="stop-color:#C3EDCD"/>
		<stop  offset="0.6874" style="stop-color:#B5E1C0"/>
		<stop  offset="0.8158" style="stop-color:#A2CEAD"/>
		<stop  offset="0.93" style="stop-color:#89B796"/>
		<stop  offset="1" style="stop-color:#76A583"/>
	</linearGradient>
	<path style="fill:url(#SVGID_00000140009541218856607100000004804317252363936134_);" d="M-102.2,16c-1.7,3.8,0.8,7.2,5,6.8
		c7,8.8,5.7,21.7-0.6,30.5c-3.2,4.4-6.4,8-8.4,12.5c-2.3,4.9-3.6,10.6-4.6,16.1c0.5,1.9,1,4.4,1.4,7.3c11.8-11.3,28-8.8,33.6-7.4
		c-0.1-4.6-0.4-16,0.1-20.5c1.1-11.3,0.2-42,0-47.7c-2.2-0.9-8.4-3.2-14.6-2.4c-4.1,0.5-8,1.8-11.8,4c0.1,0.1,0.2,0.3,0.2,0.3
		L-102.2,16z"/>
	<path class="st1" d="M-126.2,33.8c1,4.5-2.8,8.5-7.2,7.5l-0.7,2.9c3.4,2.2,3.6,7.5,0.6,10.2c1.4,5.1,4.6,9.6,8.3,13.3
		c3.2,3.1,6.8,5.8,10.6,8c0.8-4.1,2-8.2,3.9-12.1c2.3-4.8,6.2-8.9,9.4-12.8c6.3-7.5,8.2-18.6,3.8-27.6c-4.7,1.7-8.4-2.8-7.5-7.2
		c-4.1-3.3-8.7-6.1-13.5-8.4c0.1,1.2,0.2,2.5,0.2,3.8c0.5,7.8-4.9,13.9-9.6,19.4C-126.9,31.6-126.4,32.8-126.2,33.8z M-116,42.5
		c0.1-0.1,0.2-0.2,0.4-0.4c3.2-2.9,3.3-7.3,1.7-11.3c3.7,3.5,3.6,10.3-0.7,13.4c-0.6,0.5-1.1,1-1.6,1.6c-0.8,1-1.4,2.2-1.7,3.5
		c-0.5,2.1-0.3,4.4,0.2,6.6l0,0c-1.3-2-2.1-4.4-1.9-6.9C-119.4,46.6-118,44.1-116,42.5z"/>
	
		<linearGradient id="SVGID_00000161612605874937795390000004069785233666593176_" gradientUnits="userSpaceOnUse" x1="-153" y1="-929.332" x2="-114.4402" y2="-929.332" gradientTransform="matrix(1 0 0 -1 0 -878)">
		<stop  offset="0" style="stop-color:#CDF7D7"/>
		<stop  offset="0.3512" style="stop-color:#CBF5D5"/>
		<stop  offset="0.5386" style="stop-color:#C3EDCD"/>
		<stop  offset="0.6874" style="stop-color:#B5E1C0"/>
		<stop  offset="0.8158" style="stop-color:#A2CEAD"/>
		<stop  offset="0.93" style="stop-color:#89B796"/>
		<stop  offset="1" style="stop-color:#76A583"/>
	</linearGradient>
	<path style="fill:url(#SVGID_00000161612605874937795390000004069785233666593176_);" d="M-136.2,53.2c1.7-0.6,2.9-2.1,3-4.1
		c0.2-1.9-0.9-3.6-2.6-4.3l0.1-0.5c0.1-0.5,1.1-4.4,1.2-4.8l0.8,0.2c5.9,2,8.3-6.5,2.9-8.4c2.6-4.6,6.4-8.8,7.7-13.4
		c0.1-0.3,0.2-0.6,0.2-1c-12.2-7.1-26.4-3.6-30.1-2.5v68c3.3-1,9.8-3,14.8-3c0.2,0,0.5,0,0.7,0c6.3,0.2,14.1,4.3,20.9,10.7
		c1.2-3.4,1.8-6.6,2.2-8.9C-125,75.1-134.8,65.9-136.2,53.2z"/>
	<path class="st1" d="M-117.4,97.4c0.8,0.4,2.3,0.8,4,0.9c1.3,0,2.1-0.2,2.5-0.3c-0.2-5.9-0.9-11-1.7-14.4
		C-113.3,87.4-114.7,92.9-117.4,97.4z"/>
	<path d="M-72.8,12.5v-0.9l-0.8-0.4c-0.3-0.2-8.5-4.1-17.1-3c-4.8,0.6-9.2,2.1-13.6,4.8c0.6,0.6,1.2,1.1,1.7,1.7
		c0,0,0.2,0.2,0.4,0.4c3.8-2.2,7.7-3.5,11.8-4c6.3-0.8,12.5,1.5,14.7,2.4c0.2,5.7,1.1,36.4,0,47.7c-0.5,4.5-0.2,15.9-0.1,20.5
		c-5.6-1.3-21.7-3.8-33.6,7.4c0.2,1.2,0.3,2.5,0.4,3.8c13.1-14.7,33.3-8.2,34.3-7.9l2,0.7l-0.1-2.1c0-0.2-0.5-16.7,0-22.1
		C-71.5,49-72.7,13.9-72.8,12.5z"/>
	<path d="M-137.5,79.6c-0.2,0-0.4,0-0.7,0c-5,0-11.6,1.9-14.8,3v-68c3.8-1.1,17.9-4.7,30.1,2.5c0.2-1,0.4-2,0.5-3.1
		c-15.1-8.2-32.4-2-32.6-1.9l-1,0.4v74.3l2-0.7c0.1,0,10.2-3.7,16.4-3.4c5.9,0.2,13.4,4.3,19.8,10.7c0.4-1,0.8-2,1.2-3
		C-123.4,83.9-131.2,79.9-137.5,79.6z"/>
	<path d="M-123.2,17.9c-1.2,4.5-5.1,8.8-7.7,13.4c5.4,1.9,3,10.4-2.9,8.4l-0.7-0.2c-0.1,0.4-1.1,4.3-1.2,4.8l-0.1,0.5
		c1.7,0.7,2.8,2.5,2.6,4.3c-0.1,2-1.3,3.5-3,4.1c1.4,12.7,11.2,21.8,21.7,28.1c0.1-0.6,0.2-1.2,0.2-1.7l0,0c0.1-0.6,0.6-1.1,1.2-1.2
		s1.2,0.3,1.5,0.9c0.3,0.7,0.5,1.5,0.8,2.6c1-5.5,2.3-11.2,4.6-16.1c2-4.4,5.2-8,8.4-12.5c6.3-8.9,7.6-21.7,0.6-30.5
		c-4.2,0.4-6.8-2.9-5-6.8l0.4-0.7c0,0-0.1-0.1-0.2-0.3c-0.2-0.2-0.4-0.4-0.4-0.4c-0.6-0.6-1.1-1.2-1.7-1.7
		c-5.7-5.3-12.5-9.2-19.4-12.4c0.6,4.3,1.4,9.1,1.1,13.4c-0.1,1-0.3,2.1-0.5,3.1C-123,17.3-123.1,17.6-123.2,17.9z M-118.1,11.4
		c0-1.3-0.1-2.5-0.2-3.8c4.8,2.4,9.3,5.1,13.5,8.4c-0.9,4.4,2.8,8.9,7.5,7.2c4.4,9,2.5,20-3.8,27.6c-3.3,3.9-7.1,8-9.4,12.8
		c-1.9,3.9-3.1,8-3.9,12.1c-3.9-2.3-7.5-4.9-10.6-8c-3.7-3.7-6.9-8.2-8.3-13.3c3.1-2.7,2.9-8-0.6-10.2l0.7-2.9
		c4.4,1,8.2-3.1,7.2-7.5c-0.2-1.1-0.7-2.1-1.5-3C-123,25.2-117.6,19.2-118.1,11.4z"/>
	<path d="M-110.8,81.9c-0.3-1-0.5-1.9-0.8-2.6c-0.2-0.6-0.8-1-1.5-0.9c-0.6,0.1-1.1,0.6-1.2,1.2l0,0c-0.1,0.5-0.1,1-0.2,1.7
		c-0.3,2.3-1,5.5-2.2,8.9c-0.3,1-0.7,2-1.2,3c-0.6,1.3-1.2,2.6-2,3.8l-0.4,0.6l0.4,0.6c1.1,1.7,4.5,2.2,6.3,2.3c0.1,0,0.3,0,0.4,0
		c1.5,0,3.3-0.3,4.2-1.4l0.2-0.3v-0.4c-0.1-1.9-0.2-3.7-0.3-5.4c-0.1-1.3-0.2-2.6-0.4-3.8C-109.8,86.4-110.2,83.9-110.8,81.9z
		 M-113.4,98.4c-1.7-0.1-3.2-0.5-4-0.9c2.7-4.6,4.1-10,4.8-13.9c0.8,3.5,1.5,8.6,1.7,14.4C-111.3,98.1-112.1,98.4-113.4,98.4z"/>
	<path d="M-117.7,56c-0.5-2.3-0.7-4.6-0.2-6.6c0.3-1.3,0.9-2.5,1.7-3.5c0.5-0.6,1-1.1,1.6-1.6c4.3-3.1,4.4-9.9,0.7-13.4
		c1.6,4,1.5,8.4-1.7,11.3c-0.1,0.1-0.2,0.3-0.4,0.4c-2,1.6-3.4,4.1-3.6,6.6C-119.8,51.6-119,54.1-117.7,56L-117.7,56z"/>
</g>
<g>
	<path class="st1" d="M350.8,4.9c0,0-8.8-4.3-17.9-3.2c-9.6,1.2-17.4,5.9-26,14.3c-2-2.3-13-8-15.6-9.6c1.8,13.8,3.3,58.9,3.3,58.9
		l-8.9-11.7L277,61c0,0,4.1-23.6,0-57.6c-6.4-1.5-14.5,2.5-14.5,2.5v78.3c0,0,11.4-4.1,18.6-3.9c8.7,0.3,19.3,7.5,26.9,16.5
		c14.9-23,42.8-13.6,42.8-13.6s-0.6-18.4,0-24.6C352.2,44.7,350.8,4.9,350.8,4.9z"/>
	<path d="M349.8,5.5c0.1,0.1,0.2,0.3,0.3,0.3c0.1,0.1,0.1,0,0,0l0,0h-0.2l-0.3-0.1c-11.1-4.7-22.7-3-32.4,4
		c-3.2,2.3-6.1,4.9-8.9,7.7l-2.9-0.1c-1.9-1.8-4.7-3.2-7.1-4.6c-2.4-1.3-5.7-3.1-8.1-4.5l3-2c-0.1,10,0.5,19.7,1.1,29.6
		c0.6,9.6,1.3,19.9,2.2,29.5l0.6,6.1l-4.2-4.8L284,54.9l2.9,0.3l-8.7,7.4l-4.1,3.5l0.9-5.4c2-9.2,2.6-19,2.6-28.5
		c0-9.6-0.7-19.2-2.7-28.6l1.5,1.7c-3.1-0.9-6.9-0.3-10.1,0.6c-1.1,0.3-2.3,0.7-3.4,1.2l0.8-1.2l-0.4,78.3l-1.3-0.9
		c4.1-1.5,8.2-2.8,12.5-3.6c13.6-3.3,26.2,6.3,34.8,15.9l-3.2,0.2c2.4-3.5,5.3-6.7,8.7-9.2c6.8-5.1,15.5-7.1,23.9-6.7
		c4.2,0.2,8.2,0.8,12.3,2.1l-1.8,1.4c-0.3-9.8-0.5-19.6,0.4-29.5c0.5-9.7,0.4-19.5,0.3-29.3c-0.1-5.1-0.2-13.4-0.4-18.3V5.7V5.5
		C349.6,5.4,349.7,5.5,349.8,5.5L349.8,5.5z M351.7,4.2c0.3,0.9,0.2,2.1,0.3,3c0.4,12,0.7,24.8,0.6,36.8c0.1,6.5-0.5,13-0.8,19.6
		c-0.1,7.1,0.1,14.3,0.4,21.5c-11.4-3.7-25.3-3.2-35,4.3c-3.7,2.8-6.6,6.7-9,10.7c-3.2-3.9-6.6-7.8-10.6-10.9
		c-4.8-3.8-10.3-7.1-16.4-7.6c-6.7-0.2-13.4,1.8-19.7,3.9v-1.4l-0.4-78.3V5c5.4-2.8,11.7-5.1,17.8-3.2c0.1,7.7,0.6,15.4,0.8,23.1
		c0.4,12.2,0.3,24.2-0.8,36.4l-3.3-1.9l8.7-7.4l1.6-1.4c0.4,0.6,9.4,12.4,10.2,13.4l-3.6,1.3c0.3-9.5,0.1-19.9-0.2-29.5
		c-0.5-9.8-0.7-19.7-3-29.2l-1-3.9l4,1.9c2.1,1.2,5.7,3.2,8,4.4c2.9,1.8,5.7,3,8.1,5.5l-2.9-0.1c12.3-12,27.6-18.7,44.3-11.4
		C350.4,3.4,351.4,3.7,351.7,4.2L351.7,4.2z"/>
</g>
<path class="st4" d="M84.4,74.5c-0.1-0.8-0.2-1.5-0.4-2.2c-2.7-10.4-12.7-18.4-23.5-18.4c0,0-17.5-0.2-17.4-0.1
	C37,53.4,30.6,54.4,25.6,58c-5.3,3.5-9.2,9.4-10.4,15.7c0.9,1.6,1.9,3.2,3,4.7c0-1.6,0.1-3.3,0.4-4.6c1.5-8,8.1-14.7,16.1-16.6
	c2.8-0.7,5.5-0.6,8.4-0.6l17.5-0.2c7.7-0.2,15.4,4.2,18.8,11.1c1.8,3.3,2.7,7,2.6,10.7C82.9,77.1,83.7,75.8,84.4,74.5z"/>
<path d="M55.2,99.6c-25.4,3-48.7-16-50.7-41.4c-2.5-24,16.4-47,40.3-49.3c23.8-3.2,47.4,14.9,50.4,38.8C99,73,80.6,96.8,55.2,99.6
	L55.2,99.6z M54.3,93.1c35.4-4.2,48.9-48.9,21.4-71.9c-12.7-10.7-32-12.4-46.3-4C15,25.2,6.7,42.4,9.3,58.6
	C12.2,79.9,33.2,95.9,54.3,93.1L54.3,93.1z"/>
<g>
	<circle class="st1" cx="49.9" cy="26.8" r="24.4"/>
	<path class="st4" d="M75.6,26.8c0,3.3-0.3,6.8-1.6,10C70.1,46.2,59.9,52,49.9,52.2C27,52.2,15.4,24.7,31.4,8.3
		C47.8-8.3,75.7,3.7,75.6,26.8L75.6,26.8z M73,26.8c-0.3-20.3-24.6-30-39.1-15.9c-11.6,11.2-7.9,31.2,7,37.5
		c8.4,3.7,19.1,1.8,25.2-5.2C70.1,38.5,72.7,32.8,73,26.8L73,26.8z"/>
</g>
</svg>
