<?xml version="1.0" encoding="utf-8"?>
<!-- Generator: Adobe Illustrator 27.3.1, SVG Export Plug-In . SVG Version: 6.00 Build 0)  -->
<svg version="1.1" id="Layer_1" xmlns="http://www.w3.org/2000/svg" xmlns:xlink="http://www.w3.org/1999/xlink" x="0px" y="0px"
	 viewBox="0 0 100 100" style="enable-background:new 0 0 100 100;" xml:space="preserve">
<style type="text/css">
	.st0{stroke:#000000;stroke-miterlimit:10;}
	.st1{fill:#63BC5E;}
</style>
<path d="M93,60.3c0.2-0.4,0.3-1,0.2-1.6c0-0.5-0.4-1.2-0.4-1.1c-0.1-0.3-0.7-1.2-0.8-1.5C84,40.9,74.6,26.4,63.4,13.4
	C59.3,8.6,54.8,4.2,50.1,0c-9.4,7.9-17.4,17.4-24.6,27.4c-7.8,11-15.1,22.4-21,34.6c2.2-0.1,19.3-0.8,25.8-1
	c-1.5,11.4-4,22.8-7.5,33.8l-1.2,3.6c0,0,3.9,0.1,3.9,0.1c3.4,0.1,53.1,1.4,55.1,1.5c-4.6-12.6-8.3-25.8-10.7-39.1
	C77.5,61,85.5,60.7,93,60.3z M88.8,59.6C88.8,59.6,88.8,59.6,88.8,59.6L88.8,59.6z M65.8,57.3c0.3,3.8,0.3,7.6,0.7,11.3
	c0.7,7.7,1.7,15.3,3.1,23c-9.9,0.3-31.9,0.9-40.5,1.1c2.6-11,4.4-22.2,5.2-33.5l0.1-1.9l-2-0.1c0,0-12.3-0.5-19.1-0.8
	c2-4,4.1-7.9,6.2-11.8c5.7-10.2,12.1-20.2,19.4-29.4C42.4,11,46.1,6.9,50,3.1C66.1,18.5,77.9,38,87.9,57.8
	C80.5,57.3,73.3,57.1,65.8,57.3z"/>
<g>
	<path d="M-21.1,59.3c-0.2,0.2-0.4,0.6-0.4,1c0,0.4,0.2,0.9,0.1,0.6c-0.1-0.3-0.5-1.1-0.7-1.4C-32,40-43.6,20.9-59.6,5.8
		c0,0,1.4,0,1.4,0c-4.1,3.9-7.9,8.1-11.4,12.5c-7,8.9-13.2,18.5-18.7,28.3c-2.8,4.9-5.4,10-7.8,15c0,0-2.4-3.9-2.4-3.9
		c0,0,22.6,0.9,22.6,0.9c0,0,1.9,0.1,1.9,0.1l-0.1,1.9c-0.8,12.1-2.8,24.1-5.9,35.9c0,0-2.6-3.5-2.6-3.5c0,0,47.4-1.3,47.4-1.3
		c0,0-3.8,5.1-3.8,5.1c-1.9-9-3.2-18-3.9-27.1c-0.3-3.6-0.4-7.3-0.7-10.9C-35.9,58.6-28.7,58.8-21.1,59.3L-21.1,59.3z M-17.4,61.7
		c-8,0.5-16.4,0.7-24.4,0.5c0,0,1.7-1.9,1.7-1.9c2.2,13.5,6,26.8,10.7,39.6c-1.9-0.1-49.8-1.3-53.1-1.4c0,0-3.8-0.1-3.8-0.1l1.1-3.4
		c3.6-11.2,6.1-22.9,7.5-34.6c0,0,1.8,1.9,1.8,1.9c-3,0.1-24.5,1-27,1.1c5.7-11.8,12.7-22.8,20.2-33.4c7-9.6,14.7-18.8,23.8-26.4
		c4.6,4,8.9,8.3,12.9,12.9C-35.1,29-26.1,43-18.3,57.6c0.1,0.3,0.6,1.2,0.8,1.4c0-0.1,0.3,0.6,0.3,1.1
		C-17.1,60.7-17.2,61.3-17.4,61.7L-17.4,61.7z"/>
</g>
<path class="st0" d="M188.5,100h-51.9c0,0,8-25.9,8-51.9c0-9,35.9-9,35.9,0C180.5,72.2,188.5,100,188.5,100z"/>
<path class="st0" d="M162.5,0.7c-24.1,21.2-43.3,60.7-43.3,60.7h86.6C205.8,61.4,187,22.2,162.5,0.7z"/>
<polygon class="st0" points="264.5,100 212.7,100 220.6,48.1 256.6,48.1 "/>
<polygon class="st0" points="238.6,0.5 195.3,61.4 281.9,61.4 "/>
<path class="st1" d="M88.8,59.6C88.8,59.6,88.8,59.6,88.8,59.6L88.8,59.6z M65.8,57.3c0.3,3.8,0.3,7.6,0.7,11.3
	c0.7,7.7,1.7,15.3,3.1,23c-9.9,0.3-31.9,0.9-40.5,1.1c2.6-11,4.4-22.2,5.2-33.5l0.1-1.9l-2-0.1c0,0-12.3-0.5-19.1-0.8
	c2-4,4.1-7.9,6.2-11.8c5.7-10.2,12.1-20.2,19.4-29.4C42.4,11,46.1,6.9,50,3.1C66.1,18.5,77.9,38,87.9,57.8
	C80.5,57.3,73.3,57.1,65.8,57.3z"/>
<path d="M50.8,60.6c-1.4-3-2.4-6.1-2.4-9.1c0-1.9,0.5-3.7,1.2-5.4c0.5-1,1-1.8,1.7-2.7c5-5.6,3-15.1-3.3-18.8
	c3.5,5,4.7,11.2,1.2,16.2c-0.1,0.2-0.2,0.5-0.4,0.7c-2.3,2.8-3.4,6.7-2.9,10.3C46.5,55.2,48.4,58.4,50.8,60.6L50.8,60.6z"/>
</svg>
