<?xml version="1.0" encoding="utf-8"?>
<!-- Generator: Adobe Illustrator 27.3.1, SVG Export Plug-In . SVG Version: 6.00 Build 0)  -->
<svg version="1.1" id="Layer_1" xmlns="http://www.w3.org/2000/svg" xmlns:xlink="http://www.w3.org/1999/xlink" x="0px" y="0px"
	 viewBox="0 0 100 100" style="enable-background:new 0 0 100 100;" xml:space="preserve">
<style type="text/css">
	.st0{stroke:#000000;stroke-miterlimit:10;}
	.st1{fill:url(#SVGID_1_);}
	.st2{fill:url(#SVGID_00000025404246912378297090000014741416684730653883_);}
	.st3{fill:#63BC5E;}
	.st4{fill:url(#SVGID_00000068663419483477515960000014596443812995374222_);}
</style>
<path d="M93,60.3c0.2-0.4,0.3-1,0.2-1.6c0-0.5-0.4-1.2-0.4-1.1c-0.1-0.3-0.7-1.2-0.8-1.5c-8-15.2-17.4-29.7-28.6-42.7
	C59.3,8.6,54.8,4.2,50.1,0c-9.4,7.9-17.4,17.4-24.6,27.4c-7.8,11-15.1,22.4-21,34.6c2.2-0.1,19.3-0.8,25.8-1
	c-1.5,11.4-4,22.8-7.5,33.8l-1.2,3.6l3.9,0.1c3.4,0.1,53.1,1.4,55.1,1.5C76,87.4,72.3,74.2,69.9,60.9C77.5,61,85.5,60.7,93,60.3z
	 M88.8,59.6L88.8,59.6L88.8,59.6z M65.8,57.3c0.3,3.8,0.3,7.6,0.7,11.3c0.7,7.7,1.7,15.3,3.1,23c-9.9,0.3-31.9,0.9-40.5,1.1
	c2.6-11,4.4-22.2,5.2-33.5l0.1-1.9l-2-0.1c0,0-12.3-0.5-19.1-0.8c2-4,4.1-7.9,6.2-11.8c5.7-10.2,12.1-20.2,19.4-29.4
	C42.4,11,46.1,6.9,50,3.1C66.1,18.5,77.9,38,87.9,57.8C80.5,57.3,73.3,57.1,65.8,57.3z"/>
<g>
	<path d="M-21.1,59.3c-0.2,0.2-0.4,0.6-0.4,1s0.2,0.9,0.1,0.6c-0.1-0.3-0.5-1.1-0.7-1.4C-32,40-43.6,20.9-59.6,5.8h1.4
		c-4.1,3.9-7.9,8.1-11.4,12.5c-7,8.9-13.2,18.5-18.7,28.3c-2.8,4.9-5.4,10-7.8,15l-2.4-3.9l22.6,0.9l1.9,0.1l-0.1,1.9
		c-0.8,12.1-2.8,24.1-5.9,35.9l-2.6-3.5l47.4-1.3l-3.8,5.1c-1.9-9-3.2-18-3.9-27.1c-0.3-3.6-0.4-7.3-0.7-10.9
		C-35.9,58.6-28.7,58.8-21.1,59.3L-21.1,59.3z M-17.4,61.7c-8,0.5-16.4,0.7-24.4,0.5l1.7-1.9c2.2,13.5,6,26.8,10.7,39.6
		c-1.9-0.1-49.8-1.3-53.1-1.4l-3.8-0.1l1.1-3.4c3.6-11.2,6.1-22.9,7.5-34.6l1.8,1.9c-3,0.1-24.5,1-27,1.1
		c5.7-11.8,12.7-22.8,20.2-33.4c7-9.6,14.7-18.8,23.8-26.4c4.6,4,8.9,8.3,12.9,12.9C-35.1,29-26.1,43-18.3,57.6
		c0.1,0.3,0.6,1.2,0.8,1.4c0-0.1,0.3,0.6,0.3,1.1C-17.1,60.7-17.2,61.3-17.4,61.7L-17.4,61.7z"/>
</g>
<path class="st0" d="M188.5,100h-51.9c0,0,8-25.9,8-51.9c0-9,35.9-9,35.9,0C180.5,72.2,188.5,100,188.5,100z"/>
<path class="st0" d="M162.5,0.7c-24.1,21.2-43.3,60.7-43.3,60.7h86.6C205.8,61.4,187,22.2,162.5,0.7z"/>
<polygon class="st0" points="264.5,100 212.7,100 220.6,48.1 256.6,48.1 "/>
<polygon class="st0" points="238.6,0.5 195.3,61.4 281.9,61.4 "/>
<linearGradient id="SVGID_1_" gradientUnits="userSpaceOnUse" x1="51.05" y1="3.1" x2="51.05" y2="92.7">
	<stop  offset="0" style="stop-color:#CDF7D7"/>
	<stop  offset="0.3512" style="stop-color:#CBF5D5"/>
	<stop  offset="0.5386" style="stop-color:#C3EDCD"/>
	<stop  offset="0.6874" style="stop-color:#B5E1C0"/>
	<stop  offset="0.8158" style="stop-color:#A2CEAD"/>
	<stop  offset="0.93" style="stop-color:#89B796"/>
	<stop  offset="1" style="stop-color:#76A583"/>
</linearGradient>
<path class="st1" d="M88.8,59.6L88.8,59.6L88.8,59.6z M65.8,57.3c0.3,3.8,0.3,7.6,0.7,11.3c0.7,7.7,1.7,15.3,3.1,23
	c-9.9,0.3-31.9,0.9-40.5,1.1c2.6-11,4.4-22.2,5.2-33.5l0.1-1.9l-2-0.1c0,0-12.3-0.5-19.1-0.8c2-4,4.1-7.9,6.2-11.8
	c5.7-10.2,12.1-20.2,19.4-29.4C42.4,11,46.1,6.9,50,3.1C66.1,18.5,77.9,38,87.9,57.8C80.5,57.3,73.3,57.1,65.8,57.3z"/>
<g>
	
		<linearGradient id="SVGID_00000113347936875411547210000003056023105842783159_" gradientUnits="userSpaceOnUse" x1="9.3864" y1="-85.7669" x2="-26.2055" y2="-85.7669" gradientTransform="matrix(1 0 0 -1 0 100)">
		<stop  offset="0" style="stop-color:#CDF7D7"/>
		<stop  offset="0.3512" style="stop-color:#CBF5D5"/>
		<stop  offset="0.5386" style="stop-color:#C3EDCD"/>
		<stop  offset="0.6874" style="stop-color:#B5E1C0"/>
		<stop  offset="0.8158" style="stop-color:#A2CEAD"/>
		<stop  offset="0.93" style="stop-color:#89B796"/>
		<stop  offset="1" style="stop-color:#76A583"/>
	</linearGradient>
	<path style="fill:url(#SVGID_00000113347936875411547210000003056023105842783159_);" d="M-17.6,151.6c-1.7,3.8,0.8,7.2,5,6.8
		c7,8.8,5.7,21.7-0.6,30.5c-3.2,4.4-6.4,8-8.4,12.5c-2.3,4.9-3.6,10.6-4.6,16.1c0.5,1.9,1,4.4,1.4,7.3c11.8-11.3,28-8.8,33.6-7.4
		c-0.1-4.6-0.4-16,0.1-20.5c1.1-11.3,0.2-42,0-47.7c-2.2-0.9-8.4-3.2-14.6-2.4c-4.1,0.5-8,1.8-11.8,4c0.1,0.1,0.2,0.3,0.2,0.3
		L-17.6,151.6z"/>
	<path class="st3" d="M-126.4,31.8c1,4.5-2.8,8.5-7.2,7.5l-0.7,2.9c3.4,2.2,3.6,7.5,0.6,10.2c1.4,5.1,4.6,9.6,8.3,13.3
		c3.2,3.1,6.8,5.8,10.6,8c0.8-4.1,2-8.2,3.9-12.1c2.3-4.8,6.2-8.9,9.4-12.8c6.3-7.5,8.2-18.6,3.8-27.6c-4.7,1.7-8.4-2.8-7.5-7.2
		c-4.1-3.3-8.7-6.1-13.5-8.4c0.1,1.2,0.2,2.5,0.2,3.8c0.5,7.8-4.9,13.9-9.6,19.4C-127.2,29.6-126.7,30.8-126.4,31.8z M-116.2,40.5
		c0.1-0.1,0.2-0.2,0.4-0.4c3.2-2.9,3.3-7.3,1.7-11.3c3.7,3.5,3.6,10.3-0.7,13.4c-0.6,0.5-1.1,1-1.6,1.6c-0.8,1-1.4,2.2-1.7,3.5
		c-0.5,2.1-0.3,4.4,0.2,6.6l0,0c-1.3-2-2.1-4.4-1.9-6.9C-119.7,44.6-118.2,42.1-116.2,40.5z"/>
	
		<linearGradient id="SVGID_00000013890380553579321960000012224716184185171607_" gradientUnits="userSpaceOnUse" x1="-153.2905" y1="50.618" x2="-114.7307" y2="50.618" gradientTransform="matrix(1 0 0 -1 0 100)">
		<stop  offset="0" style="stop-color:#CDF7D7"/>
		<stop  offset="0.3512" style="stop-color:#CBF5D5"/>
		<stop  offset="0.5386" style="stop-color:#C3EDCD"/>
		<stop  offset="0.6874" style="stop-color:#B5E1C0"/>
		<stop  offset="0.8158" style="stop-color:#A2CEAD"/>
		<stop  offset="0.93" style="stop-color:#89B796"/>
		<stop  offset="1" style="stop-color:#76A583"/>
	</linearGradient>
	<path style="fill:url(#SVGID_00000013890380553579321960000012224716184185171607_);" d="M-136.4,51.2c1.7-0.6,2.9-2.1,3-4.1
		c0.2-1.9-0.9-3.6-2.6-4.3l0.1-0.5c0.1-0.5,1.1-4.4,1.2-4.8l0.8,0.2c5.9,2,8.3-6.5,2.9-8.4c2.6-4.6,6.4-8.8,7.7-13.4
		c0.1-0.3,0.2-0.6,0.2-1c-12.2-7.1-26.4-3.6-30.1-2.5v68c3.3-1,9.8-3,14.8-3c0.2,0,0.5,0,0.7,0c6.3,0.2,14.1,4.3,20.9,10.7
		c1.2-3.4,1.8-6.6,2.2-8.9C-125.2,73.1-135.1,64-136.4,51.2z"/>
	<path class="st3" d="M-117.7,95.4c0.8,0.4,2.3,0.8,4,0.9c1.3,0,2.1-0.2,2.5-0.3c-0.2-5.9-0.9-11-1.7-14.4
		C-113.6,85.4-114.9,90.9-117.7,95.4z"/>
	<path d="M-73,10.5V9.6l-0.8-0.4c-0.3-0.2-8.5-4.1-17.1-3c-4.8,0.6-9.2,2.1-13.6,4.8c0.6,0.6,1.2,1.1,1.7,1.7c0,0,0.2,0.2,0.4,0.4
		c3.8-2.2,7.7-3.5,11.8-4c6.3-0.8,12.5,1.5,14.7,2.4c0.2,5.7,1.1,36.4,0,47.7c-0.5,4.5-0.2,15.9-0.1,20.5
		c-5.6-1.3-21.7-3.8-33.6,7.4c0.2,1.2,0.3,2.5,0.4,3.8c13.1-14.7,33.3-8.2,34.3-7.9l2,0.7l-0.1-2.1c0-0.2-0.5-16.7,0-22.1
		C-71.8,47-72.9,11.9-73,10.5z"/>
	<path d="M-137.8,77.6c-0.2,0-0.4,0-0.7,0c-5,0-11.6,1.9-14.8,3v-68c3.8-1.1,17.9-4.7,30.1,2.5c0.2-1,0.4-2,0.5-3.1
		c-15.1-8.2-32.4-2-32.6-1.9l-1,0.4v74.3l2-0.7c0.1,0,10.2-3.7,16.4-3.4c5.9,0.2,13.4,4.3,19.8,10.7c0.4-1,0.8-2,1.2-3
		C-123.7,81.9-131.4,77.9-137.8,77.6z"/>
	<path d="M-123.4,15.9c-1.2,4.5-5.1,8.8-7.7,13.4c5.4,1.9,3,10.4-2.9,8.4l-0.7-0.2c-0.1,0.4-1.1,4.3-1.2,4.8l-0.1,0.5
		c1.7,0.7,2.8,2.5,2.6,4.3c-0.1,2-1.3,3.5-3,4.1c1.4,12.7,11.2,21.8,21.7,28.1c0.1-0.6,0.2-1.2,0.2-1.7l0,0c0.1-0.6,0.6-1.1,1.2-1.2
		c0.6-0.1,1.2,0.3,1.5,0.9c0.3,0.7,0.5,1.5,0.8,2.6c1-5.5,2.3-11.2,4.6-16.1c2-4.4,5.2-8,8.4-12.5c6.3-8.9,7.6-21.7,0.6-30.5
		c-4.2,0.4-6.8-2.9-5-6.8l0.4-0.7c0,0-0.1-0.1-0.2-0.3c-0.2-0.2-0.4-0.4-0.4-0.4c-0.6-0.6-1.1-1.2-1.7-1.7
		c-5.7-5.3-12.5-9.2-19.4-12.4c0.6,4.3,1.4,9.1,1.1,13.4c-0.1,1-0.3,2.1-0.5,3.1C-123.2,15.3-123.3,15.6-123.4,15.9z M-118.3,9.4
		c0-1.3-0.1-2.5-0.2-3.8c4.8,2.4,9.3,5.1,13.5,8.4c-0.9,4.4,2.8,8.9,7.5,7.2c4.4,9,2.5,20-3.8,27.6c-3.3,3.9-7.1,8-9.4,12.8
		c-1.9,3.9-3.1,8-3.9,12.1c-3.9-2.3-7.5-4.9-10.6-8c-3.7-3.7-6.9-8.2-8.3-13.3c3.1-2.7,2.9-8-0.6-10.2l0.7-2.9
		c4.4,1,8.2-3.1,7.2-7.5c-0.2-1.1-0.7-2.1-1.5-3C-123.2,23.2-117.8,17.2-118.3,9.4z"/>
	<path d="M-111.1,79.9c-0.3-1-0.5-1.9-0.8-2.6c-0.2-0.6-0.8-1-1.5-0.9c-0.6,0.1-1.1,0.6-1.2,1.2l0,0c-0.1,0.5-0.1,1-0.2,1.7
		c-0.3,2.3-1,5.5-2.2,8.9c-0.3,1-0.7,2-1.2,3c-0.6,1.3-1.2,2.6-2,3.8l-0.4,0.6l0.4,0.6c1.1,1.7,4.5,2.2,6.3,2.3c0.1,0,0.3,0,0.4,0
		c1.5,0,3.3-0.3,4.2-1.4l0.2-0.3v-0.4c-0.1-1.9-0.2-3.7-0.3-5.4c-0.1-1.3-0.2-2.6-0.4-3.8C-110.1,84.4-110.4,81.9-111.1,79.9z
		 M-113.7,96.4c-1.7-0.1-3.2-0.5-4-0.9c2.7-4.6,4.1-10,4.8-13.9c0.8,3.5,1.5,8.6,1.7,14.4C-111.6,96.1-112.3,96.4-113.7,96.4z"/>
	<path d="M-117.9,54c-0.5-2.3-0.7-4.6-0.2-6.6c0.3-1.3,0.9-2.5,1.7-3.5c0.5-0.6,1-1.1,1.6-1.6c4.3-3.1,4.4-9.9,0.7-13.4
		c1.6,4,1.5,8.4-1.7,11.3c-0.1,0.1-0.2,0.3-0.4,0.4c-2,1.6-3.4,4.1-3.6,6.6C-120.1,49.6-119.2,52.1-117.9,54L-117.9,54z"/>
</g>
</svg>
