<?xml version="1.0" encoding="utf-8"?>
<!-- Generator: Adobe Illustrator 27.3.1, SVG Export Plug-In . SVG Version: 6.00 Build 0)  -->
<svg version="1.1" id="Layer_1" xmlns="http://www.w3.org/2000/svg" xmlns:xlink="http://www.w3.org/1999/xlink" x="0px" y="0px"
	 viewBox="0 0 100 100" style="enable-background:new 0 0 100 100;" xml:space="preserve">
<style type="text/css">
	.st0{fill:url(#SVGID_1_);}
	.st1{fill:#63BC5E;}
	.st2{fill:url(#SVGID_00000146485562464692670900000015446924171381068976_);}
	.st3{fill:url(#SVGID_00000134229712934844136710000006487679306183642760_);}
	.st4{fill:url(#SVGID_00000121981341658804507130000012627793782297772190_);}
</style>
<linearGradient id="SVGID_1_" gradientUnits="userSpaceOnUse" x1="95.7364" y1="-1082.6169" x2="60.1445" y2="-1082.6169" gradientTransform="matrix(1 0 0 -1 0 -878)">
	<stop  offset="0" style="stop-color:#CDF7D7"/>
	<stop  offset="0.3512" style="stop-color:#CBF5D5"/>
	<stop  offset="0.5386" style="stop-color:#C3EDCD"/>
	<stop  offset="0.6874" style="stop-color:#B5E1C0"/>
	<stop  offset="0.8158" style="stop-color:#A2CEAD"/>
	<stop  offset="0.93" style="stop-color:#89B796"/>
	<stop  offset="1" style="stop-color:#76A583"/>
</linearGradient>
<path class="st0" d="M68.7,170.5c-1.7,3.8,0.8,7.2,5,6.8c7,8.8,5.7,21.7-0.6,30.5c-3.2,4.4-6.4,8-8.4,12.5
	c-2.3,4.9-3.6,10.6-4.6,16.1c0.5,1.9,1,4.4,1.4,7.3c11.8-11.3,28-8.8,33.6-7.4c-0.1-4.6-0.4-16,0.1-20.5c1.1-11.3,0.2-42,0-47.7
	c-2.2-0.9-8.4-3.2-14.6-2.4c-4.1,0.5-8,1.8-11.8,4c0.1,0.1,0.2,0.3,0.2,0.3L68.7,170.5z"/>
<path class="st1" d="M44.7,188.3c1,4.5-2.8,8.5-7.2,7.5l-0.7,2.9c3.4,2.2,3.6,7.5,0.6,10.2c1.4,5.1,4.6,9.6,8.3,13.3
	c3.2,3.1,6.8,5.8,10.6,8c0.8-4.1,2-8.2,3.9-12.1c2.3-4.8,6.2-8.9,9.4-12.8c6.3-7.5,8.2-18.6,3.8-27.6c-4.7,1.7-8.4-2.8-7.5-7.2
	c-4.1-3.3-8.7-6.1-13.5-8.4c0.1,1.2,0.2,2.5,0.2,3.8c0.5,7.8-4.9,13.9-9.6,19.4C44,186.1,44.5,187.3,44.7,188.3z M54.9,197
	c0.1-0.1,0.2-0.2,0.4-0.4c3.2-2.9,3.3-7.3,1.7-11.3c3.7,3.5,3.6,10.3-0.7,13.4c-0.6,0.5-1.1,1-1.6,1.6c-0.8,1-1.4,2.2-1.7,3.5
	c-0.5,2.1-0.3,4.4,0.2,6.6l0,0c-1.3-2-2.1-4.4-1.9-6.9C51.5,201.1,52.9,198.6,54.9,197z"/>
<linearGradient id="SVGID_00000031185000941043078110000012115569135969311126_" gradientUnits="userSpaceOnUse" x1="17.9" y1="-1083.8319" x2="56.4598" y2="-1083.8319" gradientTransform="matrix(1 0 0 -1 0 -878)">
	<stop  offset="0" style="stop-color:#CDF7D7"/>
	<stop  offset="0.3512" style="stop-color:#CBF5D5"/>
	<stop  offset="0.5386" style="stop-color:#C3EDCD"/>
	<stop  offset="0.6874" style="stop-color:#B5E1C0"/>
	<stop  offset="0.8158" style="stop-color:#A2CEAD"/>
	<stop  offset="0.93" style="stop-color:#89B796"/>
	<stop  offset="1" style="stop-color:#76A583"/>
</linearGradient>
<path style="fill:url(#SVGID_00000031185000941043078110000012115569135969311126_);" d="M34.7,207.7c1.7-0.6,2.9-2.1,3-4.1
	c0.2-1.9-0.9-3.6-2.6-4.3l0.1-0.5c0.1-0.5,1.1-4.4,1.2-4.8l0.8,0.2c5.9,2,8.3-6.5,2.9-8.4c2.6-4.6,6.4-8.8,7.7-13.4
	c0.1-0.3,0.2-0.6,0.2-1c-12.2-7.1-26.4-3.6-30.1-2.5v68c3.3-1,9.8-3,14.8-3c0.2,0,0.5,0,0.7,0c6.3,0.2,14.1,4.3,20.9,10.7
	c1.2-3.4,1.8-6.6,2.2-8.9C45.9,229.6,36.1,220.4,34.7,207.7z"/>
<path class="st1" d="M53.5,251.9c0.8,0.4,2.3,0.8,4,0.9c1.3,0,2.1-0.2,2.5-0.3c-0.2-5.9-0.9-11-1.7-14.4
	C57.6,241.9,56.2,247.4,53.5,251.9z"/>
<path d="M98.1,167v-0.9l-0.8-0.4c-0.3-0.2-8.5-4.1-17.1-3c-4.8,0.6-9.2,2.1-13.6,4.8c0.6,0.6,1.2,1.1,1.7,1.7c0,0,0.2,0.2,0.4,0.4
	c3.8-2.2,7.7-3.5,11.8-4c6.3-0.8,12.5,1.5,14.7,2.4c0.2,5.7,1.1,36.4,0,47.7c-0.5,4.5-0.2,15.9-0.1,20.5c-5.6-1.3-21.7-3.8-33.6,7.4
	c0.2,1.2,0.3,2.5,0.4,3.8c13.1-14.7,33.3-8.2,34.3-7.9l2,0.7l-0.1-2.1c0-0.2-0.5-16.7,0-22.1C99.4,203.5,98.2,168.4,98.1,167z"/>
<path d="M33.4,234.1c-0.2,0-0.4,0-0.7,0c-5,0-11.6,1.9-14.8,3v-68c3.8-1.1,17.9-4.7,30.1,2.5c0.2-1,0.4-2,0.5-3.1
	c-15.1-8.2-32.4-2-32.6-1.9l-1,0.4v74.3l2-0.7c0.1,0,10.2-3.7,16.4-3.4c5.9,0.2,13.4,4.3,19.8,10.7c0.4-1,0.8-2,1.2-3
	C47.5,238.4,39.7,234.4,33.4,234.1z"/>
<path d="M47.7,172.4c-1.2,4.5-5.1,8.8-7.7,13.4c5.4,1.9,3,10.4-2.9,8.4l-0.7-0.2c-0.1,0.4-1.1,4.3-1.2,4.8l-0.1,0.5
	c1.7,0.7,2.8,2.5,2.6,4.3c-0.1,2-1.3,3.5-3,4.1c1.4,12.7,11.2,21.8,21.7,28.1c0.1-0.6,0.2-1.2,0.2-1.7l0,0c0.1-0.6,0.6-1.1,1.2-1.2
	c0.6-0.1,1.2,0.3,1.5,0.9c0.3,0.7,0.5,1.5,0.8,2.6c1-5.5,2.3-11.2,4.6-16.1c2-4.4,5.2-8,8.4-12.5c6.3-8.9,7.6-21.7,0.6-30.5
	c-4.2,0.4-6.8-2.9-5-6.8l0.4-0.7c0,0-0.1-0.1-0.2-0.3c-0.2-0.2-0.4-0.4-0.4-0.4c-0.6-0.6-1.1-1.2-1.7-1.7
	c-5.7-5.3-12.5-9.2-19.4-12.4c0.6,4.3,1.4,9.1,1.1,13.4c-0.1,1-0.3,2.1-0.5,3.1C47.9,171.8,47.8,172.1,47.7,172.4z M52.8,165.9
	c0-1.3-0.1-2.5-0.2-3.8c4.8,2.4,9.3,5.1,13.5,8.4c-0.9,4.4,2.8,8.9,7.5,7.2c4.4,9,2.5,20-3.8,27.6c-3.3,3.9-7.1,8-9.4,12.8
	c-1.9,3.9-3.1,8-3.9,12.1c-3.9-2.3-7.5-4.9-10.6-8c-3.7-3.7-6.9-8.2-8.3-13.3c3.1-2.7,2.9-8-0.6-10.2l0.7-2.9c4.4,1,8.2-3.1,7.2-7.5
	c-0.2-1.1-0.7-2.1-1.5-3C47.9,179.7,53.3,173.7,52.8,165.9z"/>
<path d="M60.1,236.4c-0.3-1-0.5-1.9-0.8-2.6c-0.2-0.6-0.8-1-1.5-0.9c-0.6,0.1-1.1,0.6-1.2,1.2l0,0c-0.1,0.5-0.1,1-0.2,1.7
	c-0.3,2.3-1,5.5-2.2,8.9c-0.3,1-0.7,2-1.2,3c-0.6,1.3-1.2,2.6-2,3.8l-0.4,0.6l0.4,0.6c1.1,1.7,4.5,2.2,6.3,2.3c0.1,0,0.3,0,0.4,0
	c1.5,0,3.3-0.3,4.2-1.4l0.2-0.3v-0.4c-0.1-1.9-0.2-3.7-0.3-5.4c-0.1-1.3-0.2-2.6-0.4-3.8C61.1,240.9,60.7,238.4,60.1,236.4z
	 M57.5,252.9c-1.7-0.1-3.2-0.5-4-0.9c2.7-4.6,4.1-10,4.8-13.9c0.8,3.5,1.5,8.6,1.7,14.4C59.6,252.6,58.8,252.9,57.5,252.9z"/>
<path d="M53.2,210.5c-0.5-2.3-0.7-4.6-0.2-6.6c0.3-1.3,0.9-2.5,1.7-3.5c0.5-0.6,1-1.1,1.6-1.6c4.3-3.1,4.4-9.9,0.7-13.4
	c1.6,4,1.5,8.4-1.7,11.3c-0.1,0.1-0.2,0.3-0.4,0.4c-2,1.6-3.4,4.1-3.6,6.6C51.1,206.1,51.9,208.6,53.2,210.5L53.2,210.5z"/>
<linearGradient id="SVGID_00000176732160519000901530000012088596616104518281_" gradientUnits="userSpaceOnUse" x1="200.1027" y1="49.9" x2="126.5979" y2="49.9" gradientTransform="matrix(1 0 0 -1 0 100)">
	<stop  offset="0" style="stop-color:#CDF7D7"/>
	<stop  offset="0.3512" style="stop-color:#CBF5D5"/>
	<stop  offset="0.5386" style="stop-color:#C3EDCD"/>
	<stop  offset="0.788" style="stop-color:#B5E1C0"/>
	<stop  offset="0.8717" style="stop-color:#A2CEAD"/>
	<stop  offset="0.9635" style="stop-color:#89B796"/>
	<stop  offset="1" style="stop-color:#76A583"/>
</linearGradient>
<path style="fill:url(#SVGID_00000176732160519000901530000012088596616104518281_);" d="M193.2,96.9l-60.8,0.5
	c-2.6,0-4.8-2.1-4.8-4.7l-1-81.5c-0.1-4.4,3.4-7.9,7.8-8l59.8-0.4c3.3,0,6,2.7,5.9,6l-1.4,82.6C198.7,94.5,196.2,96.9,193.2,96.9z"
	/>
<g>
	<path d="M126,81.2c4.3-0.2,10.3-1.7,13.1,2.8c1.3,1.9,1,4.3,0.9,6.5s-0.2,4.4-0.3,6.6h-0.5c-1.3,0-6.5,0.3-7.7,0.1
		c-2.9-0.4-5.3-3-5.5-6C125.7,87.9,125.8,84.6,126,81.2L126,81.2z M127.8,83c0.1,1.8,0.2,3.6,0.2,5.4v2.7c0,1.7,1,3.3,2.5,4.1
		c0.8,0.4,1.6,0.5,2.6,0.6l6,0.2l-0.6,0.6c-0.1-2-0.2-4-0.3-6.1l-0.1-3c-0.1-1.6-1.2-3.1-2.7-3.8c-0.7-0.3-1.5-0.4-2.4-0.4
		C131.3,83.4,129.6,83.3,127.8,83L127.8,83z"/>
</g>
<g>
	<path d="M126,29c2.5-0.2,5.3-0.4,7.9-0.3c3.6,0.1,6.3,3.4,5.9,6.9c0,1.1,0,4.1-0.1,5.2c0,3.5-0.1,10.5-0.1,13.9v3.5
		c0,1.1,0.1,2.5-0.2,3.6c-0.6,2.5-3,4.5-5.6,4.5h-7h-0.7v-0.7L126,29L126,29z M127.8,30.8l-0.2,35l-0.7-0.7h7c2.7,0,4.9-2.4,4.7-5.1
		v-1.7c0-2.2,0-8.2,0-10.4c0-2.3,0-8.2-0.1-10.4c0.1-2.3-0.1-4.3-2-5.5c-0.8-0.5-1.7-0.8-2.6-0.8C131.8,31.2,129.9,31.1,127.8,30.8
		L127.8,30.8z"/>
</g>
<path d="M199,44.6c-1.7,0.1-3.4,0.1-5.1,0.1c-1.4,0.1-3.3-0.1-4.6,0.5c-2.3,0.9-3.3,2.6-3.6,4.6c0.3-0.1,0.6-0.1,0.9-0.1
	c0.1,0,0.1,0,0.2,0c0.5-2.2,2.6-3.8,4.9-3.7c1.9,0,3.9,0,5.9,0.1c-0.1,4.6-0.2,9.2-0.1,13.8c-1.4-0.2-2.6-0.3-3.9-0.3
	c-1.2-0.1-2.5,0.2-3.6-0.2s-2.1-1.1-2.7-2.3l0,0c-0.2,0-0.4,0.1-0.7,0.1c-0.4,0-0.7-0.1-1.1-0.2c0,0.2,0.1,0.5,0.2,0.7
	c0.5,1.6,1.8,3.1,3.4,3.8c3.2,1,6.8,0.4,10.1,0.2C199.2,56,199.1,50.2,199,44.6z"/>
<g>
	<path d="M139.2,4.1c-1.8,0.2-3.5,0.4-5.2,0.4c-0.9,0-1.6,0-2.4,0.4c-1.5,0.6-2.6,2.1-2.7,3.8l-0.1,3c-0.1,2-0.2,4-0.3,6.1l-0.6-0.6
		l6-0.2c1,0,1.8-0.1,2.6-0.6c1.5-0.8,2.5-2.4,2.5-4.1V9.6C139.1,7.7,139.1,5.9,139.2,4.1L139.2,4.1z M141,2.3
		c0.2,3.3,0.2,6.7,0.1,10c-0.2,3-2.6,5.6-5.5,6c-1.1,0.2-6.4-0.1-7.7-0.1h-0.5v-0.6c-0.1-2-0.2-4-0.3-6.1C127,9.4,126.7,6.9,128,5
		C130.7,0.6,136.7,2.1,141,2.3L141,2.3z"/>
</g>
<polyline class="st1" points="138.9,4.1 138.2,65.4 152.8,76.7 150.8,3.9 "/>
<path d="M139.4,4.1l-0.7,61.4l-0.2-0.4l15.3,10.4l-2.7,1.4L150.2,4h1.1l3.1,72.8l0.2,3.9c-1.6-1.4-14.8-12.9-16.7-14.7l-0.2-0.2
	v-0.3l0.7-61.4L139.4,4.1L139.4,4.1z"/>
<path d="M193.2,97.8c-14.2,0.1-46.8,1.1-60.5,1.1c-2.2,0.1-4.4-0.9-5.6-2.8c-1.2-1.6-1-3.8-1-5.7c-0.2-23.5,0.2-47.1-0.3-70.6
	l-0.1-5c0-1.5-0.2-3.7,0-5.2c0.8-5,5.5-7.9,10.4-7.5c1.6,0,5.9-0.1,7.6-0.2c6.4-0.1,23.6-0.4,30.3-0.5l20.2-0.3
	c3.2-0.2,6.4,2.1,7.4,5.2c0.3,1,0.4,2,0.4,3c-0.2,16.7-0.6,33.7-1.5,50.4c-0.3,6.7-0.5,13.4-0.6,20.2L199.8,90
	C200,94.1,197.4,97.7,193.2,97.8L193.2,97.8z M193.2,96.1c2.6,0,4.8-2.2,4.8-4.8V90l0.2-10.1c0.1-6.7,0.1-13.4,0.1-20.2
	c-0.4-16.7-0.2-33.7,0.1-50.4c0.3-2.6-1.6-5-4.3-4.9h-20.2l-40.2-0.1c-3.8,0.3-6.6,4.1-6.1,7.8c0,9.2,0.1,18.5,0.3,27.7
	c0.3,16.7,0.9,33.7,1.1,50.4c0,0.8,0,1.7,0,2.5c0.1,1.5,1.2,2.8,2.7,3C145.8,96,178.6,96,193.2,96.1L193.2,96.1z"/>
<g>
	<path d="M199.2,57.3c-3.4,0.2-6.9,0.3-10.4,0.2c-3-0.2-7.6,0.7-8.6-3c-0.3-0.9,0-1.2,0-2.1c0.2-1.7,1.6-3.1,3.4-3.2
		c5-0.1,10.5-0.2,15.5-0.4C199.3,51.6,199.3,54.4,199.2,57.3L199.2,57.3z M197.4,55.5c-0.1-1.9-0.2-3.8,0-5.7l0.9,0.9
		c-4.8-0.1-9.8-0.3-14.6-0.3c-1.4,0-2.7,1.5-2.2,3c0.1,1.1,1.1,2.1,2.2,2.1C188.3,55.1,192.7,55.2,197.4,55.5L197.4,55.5z"/>
</g>
<g>
	
		<linearGradient id="SVGID_00000086671862057124842090000003713272152787585722_" gradientUnits="userSpaceOnUse" x1="85.672" y1="49.8559" x2="13.5599" y2="49.8559" gradientTransform="matrix(1 0 0 -1 0 100)">
		<stop  offset="0" style="stop-color:#CDF7D7"/>
		<stop  offset="0.3512" style="stop-color:#CBF5D5"/>
		<stop  offset="0.5386" style="stop-color:#C3EDCD"/>
		<stop  offset="0.788" style="stop-color:#B5E1C0"/>
		<stop  offset="0.8717" style="stop-color:#A2CEAD"/>
		<stop  offset="0.9635" style="stop-color:#89B796"/>
		<stop  offset="1" style="stop-color:#76A583"/>
	</linearGradient>
	<path style="fill:url(#SVGID_00000086671862057124842090000003713272152787585722_);" d="M78.8,96.1l-59.6,0.5
		c-2.6,0-4.7-2-4.7-4.6l-1-79.9c-0.1-4.2,3.4-7.8,7.7-7.8l58.6-0.5c3.3,0,5.9,2.6,5.8,5.9l-1.3,81C84.3,93.6,81.9,96.1,78.8,96.1z"
		/>
	<polyline class="st1" points="75.8,3.5 76.4,43.7 62.3,48.6 64.2,3.3 	"/>
	<path d="M75.3,3.5l0.6,40.3l0.2-0.3l-14.8,4.1l2.6,0.9l0.8-45.1h-1.1l-3,45l-0.2,2.5c1.5-0.9,14.4-5.7,16.3-6.9l0.2-0.1v-0.2
		L76.4,3.5H75.3L75.3,3.5z"/>
	<path d="M88,6.8c-1-3.5-4.6-6-8.2-5.8L60,1.3C52.3,1.4,36.2,1.7,30.2,2c-1.5,0.1-5.8,0.2-7.2,0.2c-5.6-0.6-10.5,2.9-11.3,8.2
		c-0.1,1.1-0.1,2.5,0,3.7c0,0.5,0,1.1,0,1.5l0.1,4.9C12.1,34.3,12.1,48.4,12,62c0,9.1,0,18.5,0,27.7l0,0.4c0,1.8,0,4,1.2,5.7
		c1.2,1.9,3.6,3.2,6,3.2c0.1,0,0.2,0,0.3,0c7.3,0,20-0.3,32.4-0.6c10.6-0.2,20.6-0.5,27-0.5l0,0c2.1-0.1,4-1,5.4-2.5
		c1.4-1.6,2.1-3.8,1.9-6.1l0.1-9.8c0.1-6.6,0.3-13,0.6-19.8c0.8-14.1,1.3-29.4,1.5-49.6C88.4,8.9,88.3,7.8,88,6.8z M82.8,59.5
		c0,6.8,0,13.2-0.1,19.8l-0.2,9.9v1.2c0,1.9-1.8,3.7-3.7,3.7c-5.4,0-13.3-0.1-21.8-0.1c-13.9,0-29.7-0.1-38.4-0.2
		c-0.9-0.2-1.6-1.1-1.7-2.1c-0.1-0.6-0.1-1.5-0.1-2.3c-0.1-9.4-0.4-19-0.6-28.4c-0.2-6.9-0.4-14.1-0.5-21c-0.2-9-0.3-18.1-0.3-27.2
		l0-0.1c-0.2-1.6,0.3-3.3,1.3-4.6c1-1.2,2.3-1.9,3.7-2l39.4,0.1l19.8,0c0.9,0,1.7,0.3,2.3,1c0.7,0.7,1,1.7,0.9,2.8
		C82.7,26,82.5,43,82.8,59.5z"/>
</g>
</svg>
