<?xml version="1.0" encoding="utf-8"?>
<!-- Generator: Adobe Illustrator 27.3.1, SVG Export Plug-In . SVG Version: 6.00 Build 0)  -->
<svg version="1.1" id="Layer_1" xmlns="http://www.w3.org/2000/svg" xmlns:xlink="http://www.w3.org/1999/xlink" x="0px" y="0px"
	 viewBox="0 0 100 100" style="enable-background:new 0 0 100 100;" xml:space="preserve">
<style type="text/css">
	.st0{fill:url(#SVGID_1_);}
	.st1{fill:#63BC5E;}
	.st2{fill:url(#SVGID_00000048503483420326735320000005685426098463268009_);}
</style>
<g>
	<linearGradient id="SVGID_1_" gradientUnits="userSpaceOnUse" x1="88.934" y1="49.5496" x2="53.3421" y2="49.5496">
		<stop  offset="0" style="stop-color:#CDF7D7"/>
		<stop  offset="0.3512" style="stop-color:#CBF5D5"/>
		<stop  offset="0.5386" style="stop-color:#C3EDCD"/>
		<stop  offset="0.6874" style="stop-color:#B5E1C0"/>
		<stop  offset="0.8158" style="stop-color:#A2CEAD"/>
		<stop  offset="0.93" style="stop-color:#89B796"/>
		<stop  offset="1" style="stop-color:#76A583"/>
	</linearGradient>
	<path class="st0" d="M61.9,15.5c-1.7,3.8,0.8,7.2,5,6.8c7,8.8,5.7,21.7-0.6,30.5c-3.2,4.4-6.4,8-8.4,12.5
		c-2.3,4.9-3.6,10.6-4.6,16.1c0.5,1.9,1,4.4,1.4,7.3c11.8-11.3,28-8.8,33.6-7.4c-0.1-4.6-0.4-16,0.1-20.5c1.1-11.3,0.2-42,0-47.7
		c-2.2-0.9-8.4-3.2-14.6-2.4c-4.1,0.5-8,1.8-11.8,4c0.1,0.1,0.2,0.3,0.2,0.3L61.9,15.5z"/>
	<path class="st1" d="M37.9,33.2c1,4.5-2.8,8.5-7.2,7.5L30,43.6c3.4,2.2,3.6,7.5,0.6,10.2c1.4,5.1,4.6,9.6,8.3,13.3
		c3.2,3.1,6.8,5.8,10.6,8c0.8-4.1,2-8.2,3.9-12.1c2.3-4.8,6.2-8.9,9.4-12.8c6.3-7.5,8.2-18.6,3.8-27.6c-4.7,1.7-8.4-2.8-7.5-7.2
		c-4.1-3.3-8.7-6.1-13.5-8.4c0.1,1.2,0.2,2.5,0.2,3.8c0.5,7.8-4.9,13.9-9.6,19.4C37.2,31.1,37.7,32.2,37.9,33.2z M48.1,42
		c0.1-0.1,0.2-0.2,0.4-0.4c3.2-2.9,3.3-7.3,1.7-11.3c3.7,3.5,3.6,10.3-0.7,13.4c-0.6,0.5-1.1,1-1.6,1.6c-0.8,1-1.4,2.2-1.7,3.5
		c-0.5,2.1-0.3,4.4,0.2,6.6c0,0,0,0,0,0c-1.3-2-2.1-4.4-1.9-6.9C44.7,46.1,46.1,43.6,48.1,42z"/>
	
		<linearGradient id="SVGID_00000111155180254278863770000004931110431952159634_" gradientUnits="userSpaceOnUse" x1="11.0595" y1="50.8896" x2="49.6193" y2="50.8896">
		<stop  offset="0" style="stop-color:#CDF7D7"/>
		<stop  offset="0.3512" style="stop-color:#CBF5D5"/>
		<stop  offset="0.5386" style="stop-color:#C3EDCD"/>
		<stop  offset="0.6874" style="stop-color:#B5E1C0"/>
		<stop  offset="0.8158" style="stop-color:#A2CEAD"/>
		<stop  offset="0.93" style="stop-color:#89B796"/>
		<stop  offset="1" style="stop-color:#76A583"/>
	</linearGradient>
	<path style="fill:url(#SVGID_00000111155180254278863770000004931110431952159634_);" d="M27.9,52.7c1.7-0.6,2.9-2.1,3-4.1
		c0.2-1.9-0.9-3.6-2.6-4.3c0,0,0.1-0.5,0.1-0.5c0.1-0.5,1.1-4.4,1.2-4.8l0.8,0.2c5.9,2,8.3-6.5,2.9-8.4c2.6-4.6,6.4-8.8,7.7-13.4
		c0.1-0.3,0.2-0.6,0.2-1C29,9.3,14.8,12.8,11.1,13.9v68c3.3-1,9.8-3,14.8-3c0.2,0,0.5,0,0.7,0c6.3,0.2,14.1,4.3,20.9,10.7
		c1.2-3.4,1.8-6.6,2.2-8.9C39.1,74.6,29.3,65.4,27.9,52.7z"/>
	<path class="st1" d="M46.7,96.9c0.8,0.4,2.3,0.8,4,0.9c1.3,0,2.1-0.2,2.5-0.3c-0.2-5.9-0.9-11-1.7-14.4
		C50.8,86.9,49.4,92.3,46.7,96.9z"/>
	<path d="M91.3,12l0-0.9l-0.8-0.4c-0.3-0.2-8.5-4.1-17.1-3c-4.8,0.6-9.2,2.1-13.6,4.8c0.6,0.6,1.2,1.1,1.7,1.7c0,0,0.2,0.2,0.4,0.4
		c3.8-2.2,7.7-3.5,11.8-4C80,9.8,86.2,12.1,88.4,13c0.2,5.7,1.1,36.4,0,47.7c-0.5,4.5-0.2,15.9-0.1,20.5c-5.6-1.3-21.7-3.8-33.6,7.4
		c0.2,1.2,0.3,2.5,0.4,3.8c13.1-14.7,33.3-8.2,34.3-7.9l2,0.7l-0.1-2.1c0-0.2-0.5-16.7,0-22.1C92.6,48.4,91.4,13.4,91.3,12z"/>
	<path d="M26.6,79c-0.2,0-0.4,0-0.7,0c-5,0-11.6,1.9-14.8,3v-68c3.8-1.1,17.9-4.7,30.1,2.5c0.2-1,0.4-2,0.5-3.1
		c-15.1-8.2-32.4-2-32.6-1.9l-1,0.4v74.3l2-0.7c0.1,0,10.2-3.7,16.4-3.4c5.9,0.2,13.4,4.3,19.8,10.7c0.4-1,0.8-2,1.2-3
		C40.7,83.3,32.9,79.3,26.6,79z"/>
	<path d="M40.9,17.4c-1.2,4.5-5.1,8.8-7.7,13.4c5.4,1.9,3,10.4-2.9,8.4L29.6,39c-0.1,0.4-1.1,4.3-1.2,4.8c0,0-0.1,0.5-0.1,0.5
		c1.7,0.7,2.8,2.5,2.6,4.3c-0.1,2-1.3,3.5-3,4.1c1.4,12.7,11.2,21.8,21.7,28.1c0.1-0.6,0.2-1.2,0.2-1.7v0c0.1-0.6,0.6-1.1,1.2-1.2
		c0.6-0.1,1.2,0.3,1.5,0.9c0.3,0.7,0.5,1.5,0.8,2.6c1-5.5,2.3-11.2,4.6-16.1c2-4.4,5.2-8,8.4-12.5c6.3-8.9,7.6-21.7,0.6-30.5
		c-4.2,0.4-6.8-2.9-5-6.8l0.4-0.7c0,0-0.1-0.1-0.2-0.3c-0.2-0.2-0.4-0.4-0.4-0.4c-0.6-0.6-1.1-1.2-1.7-1.7C54.3,7.1,47.5,3.2,40.6,0
		c0.6,4.3,1.4,9.1,1.1,13.4c-0.1,1-0.3,2.1-0.5,3.1C41.1,16.8,41,17.1,40.9,17.4z M46,10.9c0-1.3-0.1-2.5-0.2-3.8
		c4.8,2.4,9.3,5.1,13.5,8.4c-0.9,4.4,2.8,8.9,7.5,7.2c4.4,9,2.5,20-3.8,27.6c-3.3,3.9-7.1,8-9.4,12.8c-1.9,3.9-3.1,8-3.9,12.1
		c-3.9-2.3-7.5-4.9-10.6-8c-3.7-3.7-6.9-8.2-8.3-13.3c3.1-2.7,2.9-8-0.6-10.2l0.7-2.9c4.4,1,8.2-3.1,7.2-7.5c-0.2-1.1-0.7-2.1-1.5-3
		C41.1,24.7,46.5,18.7,46,10.9z"/>
	<path d="M53.3,81.3c-0.3-1-0.5-1.9-0.8-2.6c-0.2-0.6-0.8-1-1.5-0.9c-0.6,0.1-1.1,0.6-1.2,1.2v0c-0.1,0.5-0.1,1-0.2,1.7
		c-0.3,2.3-1,5.5-2.2,8.9c-0.3,1-0.7,2-1.2,3c-0.6,1.3-1.2,2.6-2,3.8l-0.4,0.6l0.4,0.6c1.1,1.7,4.5,2.2,6.3,2.3c0.1,0,0.3,0,0.4,0
		c1.5,0,3.3-0.3,4.2-1.4l0.2-0.3l0-0.4c-0.1-1.9-0.2-3.7-0.3-5.4c-0.1-1.3-0.2-2.6-0.4-3.8C54.3,85.8,53.9,83.3,53.3,81.3z
		 M50.7,97.8c-1.7-0.1-3.2-0.5-4-0.9c2.7-4.6,4.1-10,4.8-13.9c0.8,3.5,1.5,8.6,1.7,14.4C52.8,97.6,52,97.8,50.7,97.8z"/>
	<path d="M46.4,55.5c-0.5-2.3-0.7-4.6-0.2-6.6c0.3-1.3,0.9-2.5,1.7-3.5c0.5-0.6,1-1.1,1.6-1.6c4.3-3.1,4.4-9.9,0.7-13.4
		c1.6,4,1.5,8.4-1.7,11.3c-0.1,0.1-0.2,0.3-0.4,0.4c-2,1.6-3.4,4.1-3.6,6.6C44.3,51.1,45.1,53.6,46.4,55.5
		C46.4,55.5,46.4,55.5,46.4,55.5z"/>
</g>
</svg>
