<?xml version="1.0" encoding="utf-8"?>
<!-- Generator: Adobe Illustrator 27.3.1, SVG Export Plug-In . SVG Version: 6.00 Build 0)  -->
<svg version="1.1" id="Layer_1" xmlns="http://www.w3.org/2000/svg" xmlns:xlink="http://www.w3.org/1999/xlink" x="0px" y="0px"
	 viewBox="0 0 100 100" style="enable-background:new 0 0 100 100;" xml:space="preserve">
<style type="text/css">
	.st0{fill:#63BC5E;}
</style>
<g>
	<path class="st0" d="M70.5,27.5c-5.6,2.1-10.2-3.4-9-8.7c-5-4-10.5-7.3-16.3-10.2c0.2,1.5,0.3,3,0.2,4.5
		c0.6,9.4-5.9,16.8-11.6,23.4c0.9,1.1,1.5,2.3,1.8,3.6c1.3,5.4-3.4,10.3-8.7,9.1l-0.8,3.4c4.1,2.7,4.4,9.1,0.7,12.4
		c1.7,6.2,5.5,11.6,10,16.1c3.8,3.7,8.2,7,12.8,9.7c1-5,2.5-10,4.8-14.7c2.8-5.8,7.5-10.7,11.4-15.5C73.5,51.6,75.8,38.3,70.5,27.5z
		 M49.7,52.9c-2,1.5-3.4,3.7-4,6.2c-0.6,2.5-0.4,5.3,0.2,8c-1.5-2.4-2.5-5.3-2.2-8.4c0.2-3,1.9-6.1,4.3-8c4.3-3.4,4.6-9.1,2.5-14.1
		C55,40.9,54.9,49.1,49.7,52.9z"/>
	<path d="M70.7,26.9c-5.1,0.5-8.2-3.5-6.1-8.2l0.4-0.9l-0.8-0.8C57.2,9.5,48.1,4.3,38.9,0c1,6.9,2.4,14.6,0.4,21
		c-1.5,5.5-6.2,10.6-9.3,16.2c6.5,2.3,3.7,12.6-3.5,10.2l-0.9-0.2c-0.1,0.4-1.3,5.2-1.5,5.8L24,53.6c2,0.9,3.4,3,3.2,5.2
		c-0.1,2.4-1.6,4.2-3.6,4.9c1.8,17,16.3,28.8,30.4,36.3c1.3-7.2,2.8-14.7,5.9-21.1c2.4-5.3,6.3-9.7,10.1-15
		C77.6,53.1,79.2,37.6,70.7,26.9z M54.4,76.2c-2.3,4.7-3.8,9.7-4.8,14.7c-4.7-2.7-9-6-12.8-9.7c-4.5-4.5-8.3-9.9-10-16.1
		c3.7-3.3,3.5-9.7-0.7-12.4l0.8-3.4c5.3,1.2,10-3.7,8.7-9.1c-0.2-1.3-0.8-2.6-1.8-3.6c5.7-6.6,12.2-14,11.6-23.4
		c0-1.5-0.1-3-0.2-4.5c5.8,2.9,11.3,6.2,16.3,10.2c-1.1,5.3,3.4,10.8,9,8.7c5.3,10.8,3,24.2-4.6,33.3C61.9,65.5,57.2,70.4,54.4,76.2
		z"/>
	<path d="M48,50.8c-2.4,1.9-4.1,4.9-4.3,8c-0.3,3.1,0.7,6,2.2,8.4c-0.6-2.8-0.8-5.5-0.2-8c0.6-2.5,1.9-4.6,4-6.2
		c5.2-3.8,5.3-12,0.8-16.2C52.6,41.7,52.3,47.4,48,50.8z"/>
</g>
</svg>
