<?xml version="1.0" encoding="utf-8"?>
<!-- Generator: Adobe Illustrator 27.3.1, SVG Export Plug-In . SVG Version: 6.00 Build 0)  -->
<svg version="1.1" id="Layer_1" xmlns="http://www.w3.org/2000/svg" xmlns:xlink="http://www.w3.org/1999/xlink" x="0px" y="0px"
	 viewBox="0 0 50 100" style="enable-background:new 0 0 50 100;" xml:space="preserve">
<style type="text/css">
	.st0{opacity:0.5;fill:url(#SVGID_1_);}
	.st1{opacity:0.5;fill:url(#SVGID_00000088831530484368568650000008540730116316015801_);}
	.st2{fill:#63BC5E;}
	.st3{opacity:0.5;fill:url(#SVGID_00000163047859833081511560000007864593373460299697_);}
	.st4{fill:url(#SVGID_00000082356502192295696270000017767544110493901965_);}
	.st5{fill:url(#SVGID_00000054971607613550783210000002970311620204584121_);}
</style>
<linearGradient id="SVGID_1_" gradientUnits="userSpaceOnUse" x1="25.05" y1="99.9" x2="25.05" y2="-9.094947e-13">
	<stop  offset="0" style="stop-color:#CDF7D7"/>
	<stop  offset="0.3512" style="stop-color:#CBF5D5"/>
	<stop  offset="0.5386" style="stop-color:#C3EDCD"/>
	<stop  offset="0.6874" style="stop-color:#B5E1C0"/>
	<stop  offset="0.8158" style="stop-color:#A2CEAD"/>
	<stop  offset="0.93" style="stop-color:#89B796"/>
	<stop  offset="1" style="stop-color:#76A583"/>
</linearGradient>
<path class="st0" d="M16.5,0h-2.3L7.9,94.6l-0.3,5.3c3.2-1.9,30.3-12,34.4-14.5l0.5-0.3v-0.4L41,0h-2.3"/>
<linearGradient id="SVGID_00000077311089708085259510000012096368463883263381_" gradientUnits="userSpaceOnUse" x1="-39" y1="91.3" x2="-39" y2="-9.094947e-13">
	<stop  offset="0" style="stop-color:#CDF7D7"/>
	<stop  offset="0.3512" style="stop-color:#CBF5D5"/>
	<stop  offset="0.5386" style="stop-color:#C3EDCD"/>
	<stop  offset="0.6874" style="stop-color:#B5E1C0"/>
	<stop  offset="0.8158" style="stop-color:#A2CEAD"/>
	<stop  offset="0.93" style="stop-color:#89B796"/>
	<stop  offset="1" style="stop-color:#76A583"/>
</linearGradient>
<path style="opacity:0.5;fill:url(#SVGID_00000077311089708085259510000012096368463883263381_);" d="M-27.7,0l1.3,84.4l-25.2,6.9
	L-49.9,0H-27.7z"/>
<path class="st2" d="M-108.2,0l1.3,84.4l-25.2,6.9l1.7-91.3h-2.3l-6.3,94.6l-0.3,5.3c3.2-1.9,30.3-12,34.4-14.5l0.5-0.3v-0.4
	L-105.9,0H-108.2z"/>
<linearGradient id="SVGID_00000024690888628818388880000012501911382051516034_" gradientUnits="userSpaceOnUse" x1="-119.5333" y1="91.3" x2="-119.5333" y2="-9.094947e-13">
	<stop  offset="0" style="stop-color:#CDF7D7"/>
	<stop  offset="0.3512" style="stop-color:#CBF5D5"/>
	<stop  offset="0.5386" style="stop-color:#C3EDCD"/>
	<stop  offset="0.6874" style="stop-color:#B5E1C0"/>
	<stop  offset="0.8158" style="stop-color:#A2CEAD"/>
	<stop  offset="0.93" style="stop-color:#89B796"/>
	<stop  offset="1" style="stop-color:#76A583"/>
</linearGradient>
<path style="opacity:0.5;fill:url(#SVGID_00000024690888628818388880000012501911382051516034_);" d="M-108.2,0l1.3,84.4l-25.2,6.9
	l1.7-91.3H-108.2z"/>
<g>
	
		<linearGradient id="SVGID_00000107575481798333836810000012843430585861155761_" gradientUnits="userSpaceOnUse" x1="154.8503" y1="34.7307" x2="119.2584" y2="34.7307" gradientTransform="matrix(1 0 0 -1 0 100)">
		<stop  offset="0" style="stop-color:#CDF7D7"/>
		<stop  offset="0.3512" style="stop-color:#CBF5D5"/>
		<stop  offset="0.5386" style="stop-color:#C3EDCD"/>
		<stop  offset="0.6874" style="stop-color:#B5E1C0"/>
		<stop  offset="0.8158" style="stop-color:#A2CEAD"/>
		<stop  offset="0.93" style="stop-color:#89B796"/>
		<stop  offset="1" style="stop-color:#76A583"/>
	</linearGradient>
	<path style="fill:url(#SVGID_00000107575481798333836810000012843430585861155761_);" d="M127.8,31.2c-1.7,3.8,0.8,7.2,5,6.8
		c7,8.8,5.7,21.7-0.6,30.5c-3.2,4.4-6.4,8-8.4,12.5c-2.3,4.9-3.6,10.6-4.6,16.1c0.5,1.9,1,4.4,1.4,7.3c11.8-11.3,28-8.8,33.6-7.4
		c-0.1-4.6-0.4-16,0.1-20.5c1.1-11.3,0.2-42,0-47.7c-2.2-0.9-8.4-3.2-14.6-2.4c-4.1,0.5-8,1.8-11.8,4c0.1,0.1,0.2,0.3,0.2,0.3
		L127.8,31.2z"/>
	<path class="st2" d="M103.8,48.9c1,4.5-2.8,8.5-7.2,7.5l-0.7,2.9c3.4,2.2,3.6,7.5,0.6,10.2c1.4,5.1,4.6,9.6,8.3,13.3
		c3.2,3.1,6.8,5.8,10.6,8c0.8-4.1,2-8.2,3.9-12.1c2.3-4.8,6.2-8.9,9.4-12.8c6.3-7.5,8.2-18.6,3.8-27.6c-4.7,1.7-8.4-2.8-7.5-7.2
		c-4.1-3.3-8.7-6.1-13.5-8.4c0.1,1.2,0.2,2.5,0.2,3.8c0.5,7.8-4.9,13.9-9.6,19.4C103.1,46.8,103.6,47.9,103.8,48.9z M114,57.7
		c0.1-0.1,0.2-0.2,0.4-0.4c3.2-2.9,3.3-7.3,1.7-11.3c3.7,3.5,3.6,10.3-0.7,13.4c-0.6,0.5-1.1,1-1.6,1.6c-0.8,1-1.4,2.2-1.7,3.5
		c-0.5,2.1-0.3,4.4,0.2,6.6l0,0c-1.3-2-2.1-4.4-1.9-6.9C110.6,61.8,112,59.3,114,57.7z"/>
	
		<linearGradient id="SVGID_00000042718411543995802810000000789236005171871632_" gradientUnits="userSpaceOnUse" x1="76.9733" y1="33.5156" x2="115.5331" y2="33.5156" gradientTransform="matrix(1 0 0 -1 0 100)">
		<stop  offset="0" style="stop-color:#CDF7D7"/>
		<stop  offset="0.3512" style="stop-color:#CBF5D5"/>
		<stop  offset="0.5386" style="stop-color:#C3EDCD"/>
		<stop  offset="0.6874" style="stop-color:#B5E1C0"/>
		<stop  offset="0.8158" style="stop-color:#A2CEAD"/>
		<stop  offset="0.93" style="stop-color:#89B796"/>
		<stop  offset="1" style="stop-color:#76A583"/>
	</linearGradient>
	<path style="fill:url(#SVGID_00000042718411543995802810000000789236005171871632_);" d="M93.8,68.4c1.7-0.6,2.9-2.1,3-4.1
		c0.2-1.9-0.9-3.6-2.6-4.3l0.1-0.5c0.1-0.5,1.1-4.4,1.2-4.8l0.8,0.2c5.9,2,8.3-6.5,2.9-8.4c2.6-4.6,6.4-8.8,7.7-13.4
		c0.1-0.3,0.2-0.6,0.2-1C94.9,25,80.7,28.5,77,29.6v68c3.3-1,9.8-3,14.8-3c0.2,0,0.5,0,0.7,0c6.3,0.2,14.1,4.3,20.9,10.7
		c1.2-3.4,1.8-6.6,2.2-8.9C105,90.3,95.2,81.1,93.8,68.4z"/>
	<path class="st2" d="M112.6,112.6c0.8,0.4,2.3,0.8,4,0.9c1.3,0,2.1-0.2,2.5-0.3c-0.2-5.9-0.9-11-1.7-14.4
		C116.7,102.6,115.3,108,112.6,112.6z"/>
	<path d="M157.2,27.7v-0.9l-0.8-0.4c-0.3-0.2-8.5-4.1-17.1-3c-4.8,0.6-9.2,2.1-13.6,4.8c0.6,0.6,1.2,1.1,1.7,1.7
		c0,0,0.2,0.2,0.4,0.4c3.8-2.2,7.7-3.5,11.8-4c6.3-0.8,12.5,1.5,14.7,2.4c0.2,5.7,1.1,36.4,0,47.7c-0.5,4.5-0.2,15.9-0.1,20.5
		c-5.6-1.3-21.7-3.8-33.6,7.4c0.2,1.2,0.3,2.5,0.4,3.8c13.1-14.7,33.3-8.2,34.3-7.9l2,0.7l-0.1-2.1c0-0.2-0.5-16.7,0-22.1
		C158.5,64.1,157.3,29.1,157.2,27.7z"/>
	<path d="M92.5,94.7c-0.2,0-0.4,0-0.7,0c-5,0-11.6,1.9-14.8,3v-68c3.8-1.1,17.9-4.7,30.1,2.5c0.2-1,0.4-2,0.5-3.1
		c-15.1-8.2-32.4-2-32.6-1.9l-1,0.4v74.3l2-0.7c0.1,0,10.2-3.7,16.4-3.4c5.9,0.2,13.4,4.3,19.8,10.7c0.4-1,0.8-2,1.2-3
		C106.6,99,98.8,95,92.5,94.7z"/>
	<path d="M106.8,33.1c-1.2,4.5-5.1,8.8-7.7,13.4c5.4,1.9,3,10.4-2.9,8.4l-0.7-0.2c-0.1,0.4-1.1,4.3-1.2,4.8L94.2,60
		c1.7,0.7,2.8,2.5,2.6,4.3c-0.1,2-1.3,3.5-3,4.1c1.4,12.7,11.2,21.8,21.7,28.1c0.1-0.6,0.2-1.2,0.2-1.7l0,0c0.1-0.6,0.6-1.1,1.2-1.2
		c0.6-0.1,1.2,0.3,1.5,0.9c0.3,0.7,0.5,1.5,0.8,2.6c1-5.5,2.3-11.2,4.6-16.1c2-4.4,5.2-8,8.4-12.5c6.3-8.9,7.6-21.7,0.6-30.5
		c-4.2,0.4-6.8-2.9-5-6.8l0.4-0.7c0,0-0.1-0.1-0.2-0.3c-0.2-0.2-0.4-0.4-0.4-0.4c-0.6-0.6-1.1-1.2-1.7-1.7
		c-5.7-5.3-12.5-9.2-19.4-12.4c0.6,4.3,1.4,9.1,1.1,13.4c-0.1,1-0.3,2.1-0.5,3.1C107,32.5,106.9,32.8,106.8,33.1z M111.9,26.6
		c0-1.3-0.1-2.5-0.2-3.8c4.8,2.4,9.3,5.1,13.5,8.4c-0.9,4.4,2.8,8.9,7.5,7.2c4.4,9,2.5,20-3.8,27.6c-3.3,3.9-7.1,8-9.4,12.8
		c-1.9,3.9-3.1,8-3.9,12.1c-3.9-2.3-7.5-4.9-10.6-8c-3.7-3.7-6.9-8.2-8.3-13.3c3.1-2.7,2.9-8-0.6-10.2l0.7-2.9
		c4.4,1,8.2-3.1,7.2-7.5c-0.2-1.1-0.7-2.1-1.5-3C107,40.4,112.4,34.4,111.9,26.6z"/>
	<path d="M119.2,97c-0.3-1-0.5-1.9-0.8-2.6c-0.2-0.6-0.8-1-1.5-0.9c-0.6,0.1-1.1,0.6-1.2,1.2l0,0c-0.1,0.5-0.1,1-0.2,1.7
		c-0.3,2.3-1,5.5-2.2,8.9c-0.3,1-0.7,2-1.2,3c-0.6,1.3-1.2,2.6-2,3.8l-0.4,0.6l0.4,0.6c1.1,1.7,4.5,2.2,6.3,2.3c0.1,0,0.3,0,0.4,0
		c1.5,0,3.3-0.3,4.2-1.4l0.2-0.3v-0.4c-0.1-1.9-0.2-3.7-0.3-5.4c-0.1-1.3-0.2-2.6-0.4-3.8C120.2,101.5,119.8,99,119.2,97z
		 M116.6,113.5c-1.7-0.1-3.2-0.5-4-0.9c2.7-4.6,4.1-10,4.8-13.9c0.8,3.5,1.5,8.6,1.7,14.4C118.7,113.3,117.9,113.5,116.6,113.5z"/>
	<path d="M112.3,71.2c-0.5-2.3-0.7-4.6-0.2-6.6c0.3-1.3,0.9-2.5,1.7-3.5c0.5-0.6,1-1.1,1.6-1.6c4.3-3.1,4.4-9.9,0.7-13.4
		c1.6,4,1.5,8.4-1.7,11.3c-0.1,0.1-0.2,0.3-0.4,0.4c-2,1.6-3.4,4.1-3.6,6.6C110.2,66.8,111,69.3,112.3,71.2L112.3,71.2z"/>
</g>
</svg>
