<?xml version="1.0" encoding="utf-8"?>
<!-- Generator: Adobe Illustrator 27.3.1, SVG Export Plug-In . SVG Version: 6.00 Build 0)  -->
<svg version="1.1" id="Layer_1" xmlns="http://www.w3.org/2000/svg" xmlns:xlink="http://www.w3.org/1999/xlink" x="0px" y="0px"
	 viewBox="0 0 50 100" style="enable-background:new 0 0 50 100;" xml:space="preserve">
<style type="text/css">
	.st0{fill:url(#SVGID_1_);}
	.st1{fill:#1C5323;}
	.st2{fill:url(#SVGID_00000006676082333067564340000009635576941913499315_);}
	.st3{fill:#63BC5E;}
	.st4{fill:url(#SVGID_00000052824123575614425200000010881085736712292243_);}
</style>
<linearGradient id="SVGID_1_" gradientUnits="userSpaceOnUse" x1="26.25" y1="95.1" x2="26.25" y2="-9.094947e-13">
	<stop  offset="0.8045" style="stop-color:#CDF7D7"/>
	<stop  offset="1" style="stop-color:#76A583"/>
</linearGradient>
<polygon class="st0" points="15.3,0 11.3,95.1 41.2,84.7 39.9,0 "/>
<path class="st1" d="M38.7,0L40,84.4l-25.2,6.9L16.5,0h-2.3L7.9,94.6l-0.3,5.3c3.2-1.9,30.3-12,34.4-14.5l0.5-0.3v-0.4L41,0H38.7z"
	/>
<g>
	
		<linearGradient id="SVGID_00000071546205803880335140000001216249325754731955_" gradientUnits="userSpaceOnUse" x1="-30.4136" y1="34.0331" x2="-66.0055" y2="34.0331" gradientTransform="matrix(1 0 0 -1 0 100)">
		<stop  offset="0" style="stop-color:#CDF7D7"/>
		<stop  offset="0.3512" style="stop-color:#CBF5D5"/>
		<stop  offset="0.5386" style="stop-color:#C3EDCD"/>
		<stop  offset="0.6874" style="stop-color:#B5E1C0"/>
		<stop  offset="0.8158" style="stop-color:#A2CEAD"/>
		<stop  offset="0.93" style="stop-color:#89B796"/>
		<stop  offset="1" style="stop-color:#76A583"/>
	</linearGradient>
	<path style="fill:url(#SVGID_00000071546205803880335140000001216249325754731955_);" d="M-57.4,31.8c-1.7,3.8,0.8,7.2,5,6.8
		c7,8.8,5.7,21.7-0.6,30.5c-3.2,4.4-6.4,8-8.4,12.5c-2.3,4.9-3.6,10.6-4.6,16.1c0.5,1.9,1,4.4,1.4,7.3c11.8-11.3,28-8.8,33.6-7.4
		c-0.1-4.6-0.4-16,0.1-20.5c1.1-11.3,0.2-42,0-47.7c-2.2-0.9-8.4-3.2-14.6-2.4c-4.1,0.5-8,1.8-11.8,4c0.1,0.1,0.2,0.3,0.2,0.3
		L-57.4,31.8z"/>
	<path class="st3" d="M-81.4,49.5c1,4.5-2.8,8.5-7.2,7.5l-0.7,2.9c3.4,2.2,3.6,7.5,0.6,10.2c1.4,5.1,4.6,9.6,8.3,13.3
		c3.2,3.1,6.8,5.8,10.6,8c0.8-4.1,2-8.2,3.9-12.1c2.3-4.8,6.2-8.9,9.4-12.8C-50.2,59-48.3,48-52.7,39c-4.7,1.7-8.4-2.8-7.5-7.2
		c-4.1-3.3-8.7-6.1-13.5-8.4c0.1,1.2,0.2,2.5,0.2,3.8C-73,35-78.4,41-83.1,46.5C-82.2,47.5-81.7,48.5-81.4,49.5z M-71.2,58.3
		c0.1-0.1,0.2-0.2,0.4-0.4c3.2-2.9,3.3-7.3,1.7-11.3c3.7,3.5,3.6,10.3-0.7,13.4c-0.6,0.5-1.1,1-1.6,1.6c-0.8,1-1.4,2.2-1.7,3.5
		c-0.5,2.1-0.3,4.4,0.2,6.6l0,0c-1.3-2-2.1-4.4-1.9-6.9C-74.7,62.4-73.2,59.9-71.2,58.3z"/>
	
		<linearGradient id="SVGID_00000059276900635722466840000001232121218915460269_" gradientUnits="userSpaceOnUse" x1="-108.2905" y1="32.818" x2="-69.7307" y2="32.818" gradientTransform="matrix(1 0 0 -1 0 100)">
		<stop  offset="0" style="stop-color:#CDF7D7"/>
		<stop  offset="0.3512" style="stop-color:#CBF5D5"/>
		<stop  offset="0.5386" style="stop-color:#C3EDCD"/>
		<stop  offset="0.6874" style="stop-color:#B5E1C0"/>
		<stop  offset="0.8158" style="stop-color:#A2CEAD"/>
		<stop  offset="0.93" style="stop-color:#89B796"/>
		<stop  offset="1" style="stop-color:#76A583"/>
	</linearGradient>
	<path style="fill:url(#SVGID_00000059276900635722466840000001232121218915460269_);" d="M-91.4,69.1c1.7-0.6,2.9-2.1,3-4.1
		c0.2-1.9-0.9-3.6-2.6-4.3l0.1-0.5c0.1-0.5,1.1-4.4,1.2-4.8l0.8,0.2c5.9,2,8.3-6.5,2.9-8.4c2.6-4.6,6.4-8.8,7.7-13.4
		c0.1-0.3,0.2-0.6,0.2-1c-12.2-7.1-26.4-3.6-30.1-2.5v68c3.3-1,9.8-3,14.8-3c0.2,0,0.5,0,0.7,0c6.3,0.2,14.1,4.3,20.9,10.7
		c1.2-3.4,1.8-6.6,2.2-8.9C-80.2,90.9-90.1,81.8-91.4,69.1z"/>
	<path class="st3" d="M-72.7,113.2c0.8,0.4,2.3,0.8,4,0.9c1.3,0,2.1-0.2,2.5-0.3c-0.2-5.9-0.9-11-1.7-14.4
		C-68.6,103.2-69.9,108.7-72.7,113.2z"/>
	<path d="M-28,28.3v-0.9l-0.8-0.4c-0.3-0.2-8.5-4.1-17.1-3c-4.8,0.6-9.2,2.1-13.6,4.8c0.6,0.6,1.2,1.1,1.7,1.7c0,0,0.2,0.2,0.4,0.4
		c3.8-2.2,7.7-3.5,11.8-4c6.3-0.8,12.5,1.5,14.7,2.4c0.2,5.7,1.1,36.4,0,47.7c-0.5,4.5-0.2,15.9-0.1,20.5
		c-5.6-1.3-21.7-3.8-33.6,7.4c0.2,1.2,0.3,2.5,0.4,3.8c13.1-14.7,33.3-8.2,34.3-7.9l2,0.7l-0.1-2.1c0-0.2-0.5-16.7,0-22.1
		C-26.8,64.8-27.9,29.7-28,28.3z"/>
	<path d="M-92.8,95.3c-0.2,0-0.4,0-0.7,0c-5,0-11.6,1.9-14.8,3v-68c3.8-1.1,17.9-4.7,30.1,2.5c0.2-1,0.4-2,0.5-3.1
		c-15.1-8.2-32.4-2-32.6-1.9l-1,0.4v74.3l2-0.7c0.1,0,10.2-3.7,16.4-3.4c5.9,0.2,13.4,4.3,19.8,10.7c0.4-1,0.8-2,1.2-3
		C-78.7,99.7-86.4,95.7-92.8,95.3z"/>
	<path d="M-78.4,33.8c-1.2,4.5-5.1,8.8-7.7,13.4c5.4,1.9,3,10.4-2.9,8.4l-0.7-0.2c-0.1,0.4-1.1,4.3-1.2,4.8l-0.1,0.5
		c1.7,0.7,2.8,2.5,2.6,4.3c-0.1,2-1.3,3.5-3,4.1c1.4,12.7,11.2,21.8,21.7,28.1c0.1-0.6,0.2-1.2,0.2-1.7l0,0c0.1-0.6,0.6-1.1,1.2-1.2
		c0.6-0.1,1.2,0.3,1.5,0.9c0.3,0.7,0.5,1.5,0.8,2.6c1-5.5,2.3-11.2,4.6-16.1c2-4.4,5.2-8,8.4-12.5c6.3-8.9,7.6-21.7,0.6-30.5
		c-4.2,0.4-6.8-2.9-5-6.8l0.4-0.7c0,0-0.1-0.1-0.2-0.3c-0.2-0.2-0.4-0.4-0.4-0.4c-0.6-0.6-1.1-1.2-1.7-1.7
		c-5.7-5.3-12.5-9.2-19.4-12.4c0.6,4.3,1.4,9.1,1.1,13.4c-0.1,1-0.3,2.1-0.5,3.1C-78.2,33.1-78.3,33.5-78.4,33.8z M-73.3,27.2
		c0-1.3-0.1-2.5-0.2-3.8c4.8,2.4,9.3,5.1,13.5,8.4c-0.9,4.4,2.8,8.9,7.5,7.2c4.4,9,2.5,20-3.8,27.6c-3.3,3.9-7.1,8-9.4,12.8
		c-1.9,3.9-3.1,8-3.9,12.1c-3.9-2.3-7.5-4.9-10.6-8c-3.7-3.7-6.9-8.2-8.3-13.3c3.1-2.7,2.9-8-0.6-10.2l0.7-2.9
		c4.4,1,8.2-3.1,7.2-7.5c-0.2-1.1-0.7-2.1-1.5-3C-78.2,41-72.8,35-73.3,27.2z"/>
	<path d="M-66.1,97.7c-0.3-1-0.5-1.9-0.8-2.6c-0.2-0.6-0.8-1-1.5-0.9c-0.6,0.1-1.1,0.6-1.2,1.2l0,0c-0.1,0.5-0.1,1-0.2,1.7
		c-0.3,2.3-1,5.5-2.2,8.9c-0.3,1-0.7,2-1.2,3c-0.6,1.3-1.2,2.6-2,3.8l-0.4,0.6l0.4,0.6c1.1,1.7,4.5,2.2,6.3,2.3c0.1,0,0.3,0,0.4,0
		c1.5,0,3.3-0.3,4.2-1.4l0.2-0.3v-0.4c-0.1-1.9-0.2-3.7-0.3-5.4c-0.1-1.3-0.2-2.6-0.4-3.8C-65.1,102.2-65.4,99.7-66.1,97.7z
		 M-68.7,114.2c-1.7-0.1-3.2-0.5-4-0.9c2.7-4.6,4.1-10,4.8-13.9c0.8,3.5,1.5,8.6,1.7,14.4C-66.6,113.9-67.3,114.2-68.7,114.2z"/>
	<path d="M-72.9,71.8c-0.5-2.3-0.7-4.6-0.2-6.6c0.3-1.3,0.9-2.5,1.7-3.5c0.5-0.6,1-1.1,1.6-1.6c4.3-3.1,4.4-9.9,0.7-13.4
		c1.6,4,1.5,8.4-1.7,11.3c-0.1,0.1-0.2,0.3-0.4,0.4c-2,1.6-3.4,4.1-3.6,6.6C-75.1,67.4-74.2,69.9-72.9,71.8L-72.9,71.8z"/>
</g>
</svg>
